<svg xmlns="http://www.w3.org/2000/svg" xmlns:xlink="http://www.w3.org/1999/xlink" viewBox="0 0 36 36"><path d="M 10.286 36 C 4.605 36 0 36 0 36 L 0 0 C 0 0 4.605 0 10.286 0 L 25.714 0 C 31.395 0 36 0 36 0 L 36 36 C 36 36 31.395 36 25.714 36 Z" fill="rgb(0,0,0)"></path><path d="M 12.555 16.159 C 12.533 15.905 12.721 15.683 12.975 15.667 C 13.869 15.608 15.935 15.491 18 15.491 C 20.066 15.491 22.131 15.608 23.025 15.667 C 23.279 15.683 23.468 15.905 23.446 16.159 L 22.787 23.738 C 22.665 25.14 21.502 26.221 20.094 26.223 C 19.484 26.224 18.779 26.224 18 26.22 C 17.253 26.216 16.574 26.216 15.98 26.217 C 14.542 26.219 13.333 25.124 13.208 23.691 Z" fill="rgb(255,255,255)"></path><g transform="translate(11.264 9.776)" id="ss2180913885_3"><path d="M 1.665 0.545 C 1.087 0.713 0.721 1.216 0.591 1.803 L 0.011 4.43 C -0.055 4.729 0.183 5.008 0.489 4.99 C 1.587 4.925 4.037 4.8 6.736 4.8 C 9.435 4.8 11.885 4.925 12.984 4.99 C 13.289 5.008 13.527 4.729 13.461 4.43 L 12.882 1.803 C 12.752 1.216 12.385 0.713 11.807 0.545 C 10.949 0.296 9.377 0 6.736 0 C 4.096 0 2.523 0.296 1.665 0.545 Z" fill="rgb(255,255,255)"></path></g></svg>